<?xml version="1.0" standalone="no"?>
<!DOCTYPE svg PUBLIC "-//W3C//DTD SVG 20010904//EN"
 "http://www.w3.org/TR/2001/REC-SVG-20010904/DTD/svg10.dtd">
<svg version="1.0" xmlns="http://www.w3.org/2000/svg"
 width="700.000000pt" height="700.000000pt" viewBox="0 0 700.000000 700.000000"
 preserveAspectRatio="xMidYMid meet">
<metadata>
Created by potrace 1.14, written by Peter Selinger 2001-2017
</metadata>
<g transform="translate(0.000000,700.000000) scale(0.100000,-0.100000)"
fill="#000000" stroke="none">
<path d="M795 6989 c-403 -59 -728 -388 -784 -794 -15 -107 -15 -5283 0 -5390
57 -411 383 -737 794 -794 107 -15 5282 -15 5392 0 411 56 739 387 793 801 8
58 10 883 8 2743 l-3 2660 -22 76 c-100 350 -332 582 -681 682 l-77 22 -2680
1 c-1481 1 -2707 -2 -2740 -7z m518 -1978 c123 -34 185 -68 258 -141 90 -89
113 -148 114 -285 0 -88 -4 -107 -27 -158 -32 -69 -112 -156 -173 -188 -25
-13 -45 -26 -44 -29 0 -3 35 -22 78 -43 178 -84 271 -227 271 -415 0 -207 -85
-346 -262 -427 -149 -68 -340 -87 -823 -83 l-320 3 -3 898 -2 898 427 -4 c404
-3 432 -5 506 -26z m4679 -137 c35 -8 95 -30 134 -48 57 -27 76 -42 102 -81
27 -42 32 -57 32 -111 0 -327 -580 -754 -1024 -754 -137 0 -237 43 -276 120
-24 48 -27 146 -5 238 16 66 72 219 83 226 4 2 5 -18 3 -46 -3 -54 11 -78 61
-104 36 -19 155 -18 232 2 95 24 271 115 363 188 206 164 253 328 108 382 -40
15 -40 15 42 10 46 -3 111 -13 145 -22z m562 -508 c116 -292 57 -519 -198
-764 -142 -136 -325 -239 -513 -289 -166 -44 -377 -36 -483 17 -101 51 -241
187 -299 291 l-25 43 37 -37 c131 -131 404 -155 683 -62 189 64 361 171 510
320 110 109 161 181 208 289 28 65 31 80 31 182 0 124 4 125 49 10z m-3669 59
c151 -42 278 -141 340 -269 45 -90 65 -185 65 -308 l0 -98 -450 0 -450 0 0
-24 c0 -42 62 -146 105 -177 58 -42 137 -56 227 -41 85 15 143 46 192 104 l36
42 162 -39 c90 -20 167 -41 172 -46 18 -16 -71 -133 -151 -201 -63 -52 -144
-93 -240 -120 -105 -30 -352 -33 -453 -5 -217 61 -363 195 -426 391 -22 68
-26 100 -26 196 -1 74 5 138 16 180 58 229 222 377 471 426 92 18 327 12 410
-11z m1470 1 c93 -25 180 -72 245 -133 111 -102 175 -282 168 -465 l-3 -73
-453 -3 -452 -2 6 -28 c12 -50 45 -117 72 -145 52 -55 98 -72 197 -72 82 0 97
3 159 34 47 23 76 45 94 72 15 21 32 38 39 39 17 0 315 -71 331 -79 19 -11
-57 -119 -130 -185 -129 -117 -306 -172 -528 -163 -146 6 -214 22 -327 77
-189 93 -297 266 -310 495 -9 168 29 311 113 421 83 110 201 182 353 215 105
23 330 20 426 -5z m-3183 -1690 l333 -294 3 274 2 274 115 0 115 0 0 -516 0
-516 -72 64 c-40 35 -192 170 -338 298 l-265 234 -3 -272 -2 -272 -115 0 -115
0 0 510 c0 281 2 510 5 510 2 0 154 -132 337 -294z m3649 0 l334 -294 3 274 2
274 110 0 c79 0 112 -4 115 -12 3 -7 4 -239 3 -515 l-3 -502 -335 295 -335
296 -3 -271 -2 -271 -115 0 -115 0 0 510 c0 281 2 510 3 510 2 0 154 -132 338
-294z m1205 263 c106 -19 188 -72 255 -163 l29 -39 -27 -17 c-16 -9 -56 -31
-90 -50 l-61 -34 -47 47 c-92 93 -235 87 -235 -10 0 -52 42 -84 182 -137 199
-74 278 -163 278 -310 0 -175 -132 -292 -341 -304 -132 -7 -235 29 -332 117
-46 41 -97 108 -97 127 0 7 36 38 81 70 63 44 83 54 89 43 18 -32 67 -88 99
-112 93 -73 231 -56 247 30 13 71 7 76 -248 197 -72 34 -107 58 -137 92 -94
107 -92 263 4 360 48 48 93 71 175 90 70 16 103 17 176 3z m-5398 -501 l2
-488 -125 0 -125 0 0 483 c0 266 3 487 7 491 4 3 59 5 122 4 l116 -3 3 -487z
m1992 382 l0 -110 -135 0 -135 0 0 -380 0 -380 -120 0 -120 0 0 380 0 380
-130 0 -130 0 0 110 0 110 385 0 385 0 0 -110z m760 10 l0 -100 -210 0 -210 0
0 -85 0 -85 198 -2 197 -3 0 -95 0 -95 -197 -3 -198 -2 0 -110 0 -110 210 0
210 0 0 -95 0 -95 -325 0 -325 0 0 490 0 490 325 0 325 0 0 -100z m630 90
c190 -25 304 -143 304 -315 0 -116 -52 -210 -144 -263 l-48 -27 115 -165 c63
-91 118 -173 124 -182 9 -17 0 -18 -129 -18 l-139 0 -102 165 -103 165 -39 0
-39 0 0 -165 0 -165 -120 0 -120 0 0 483 c0 266 3 487 7 490 10 10 348 8 433
-3z"/>
<path d="M820 4516 l0 -186 116 0 c144 0 195 12 244 59 88 84 73 221 -32 281
-39 23 -56 25 -185 28 l-143 4 0 -186z"/>
<path d="M820 3799 l0 -221 163 4 c187 6 253 24 306 83 69 79 68 211 -1 282
-53 55 -130 73 -314 73 l-154 0 0 -221z"/>
<path d="M2545 4175 c-56 -22 -112 -80 -135 -142 -11 -30 -20 -56 -20 -58 0
-3 109 -5 241 -5 l242 0 -6 36 c-9 53 -53 121 -98 151 -50 33 -161 42 -224 18z"/>
<path d="M4040 4181 c-78 -24 -127 -72 -155 -150 -8 -24 -15 -47 -15 -52 0 -5
108 -9 241 -9 l241 0 -7 33 c-17 77 -70 143 -137 171 -39 17 -125 20 -168 7z"/>
<path d="M3810 2655 l0 -125 70 0 c79 0 142 21 163 53 40 61 24 141 -35 177
-26 16 -50 20 -115 20 l-83 0 0 -125z"/>
</g>
</svg>
